<svg width="61" height="61" viewBox="0 0 61 61" fill="none" xmlns="http://www.w3.org/2000/svg">
<path d="M35 48H15.0865C11.0607 48 8.17765 44.1119 9.34465 40.2589C12.2335 30.7211 14.4536 23.3913 17.5215 13.2622C18.2879 10.732 20.6206 9 23.2644 9L34.125 9" stroke="black" stroke-width="6"/>
<path d="M27 48H46.9135C50.9393 48 53.8223 44.1119 52.6554 40.2589C49.7665 30.7211 47.5464 23.3913 44.4785 13.2622C43.7121 10.732 41.3794 9 38.7356 9L27.875 9" stroke="black" stroke-width="6"/>
<path d="M36 12V6" stroke="black"/>
<circle cx="31" cy="6" r="6" fill="black"/>
<path d="M37 55C37 56.5913 36.3679 58.1174 35.2426 59.2426C34.1174 60.3679 32.5913 61 31 61C29.4087 61 27.8826 60.3679 26.7574 59.2426C25.6321 58.1174 25 56.5913 25 55L31 55H37Z" fill="black"/>
</svg>
