<svg width="61" height="61" viewBox="0 0 61 61" fill="none" xmlns="http://www.w3.org/2000/svg">
<g clip-path="url(#clip0_21_55)">
<path d="M3 26.4008C3 21.034 3.29148 16.9261 3.99634 13.7545C4.69362 10.617 5.75493 8.58272 7.16882 7.16882C8.58272 5.75493 10.617 4.69362 13.7545 3.99634C16.9261 3.29148 21.034 3 26.4008 3H34.5992C39.966 3 44.0739 3.29148 47.2455 3.99634C50.383 4.69362 52.4173 5.75493 53.8312 7.16882C55.2451 8.58272 56.3064 10.617 57.0037 13.7545C57.7085 16.9261 58 21.034 58 26.4008V34.5992C58 39.966 57.7085 44.0739 57.0037 47.2455C56.3064 50.383 55.2451 52.4173 53.8312 53.8312C52.4173 55.2451 50.383 56.3064 47.2455 57.0037C44.0739 57.7085 39.966 58 34.5992 58H26.4008C21.034 58 16.9261 57.7085 13.7545 57.0037C10.617 56.3064 8.58272 55.2451 7.16882 53.8312C5.75493 52.4173 4.69362 50.383 3.99634 47.2455C3.29148 44.0739 3 39.966 3 34.5992V26.4008Z" stroke="black" stroke-width="6"/>
<path d="M37 10L16 34H28L22 50.5L43.5 26H32L37 10Z" fill="black"/>
</g>
<defs>
<clipPath id="clip0_21_55">
<rect width="61" height="61" fill="white"/>
</clipPath>
</defs>
</svg>
