<svg width="57" height="57" viewBox="0 0 57 57" fill="none" xmlns="http://www.w3.org/2000/svg">
<g clip-path="url(#clip0_21_72)">
<path d="M28.1445 27.8359C28.1445 22.7656 24.9648 19.457 20.1094 19.457C15.3398 19.457 12.1172 22.8516 12.1172 27.8359C12.1172 32.4336 14.7383 35.5703 18.7773 36.1289V36.6016C18.7773 39.3516 20.1523 40.3828 22.7734 40.3828C23.6758 40.3828 24.3203 40.3398 25.0078 40.2969V37.8047C24.3633 37.8477 23.8047 37.8477 22.9883 37.8477C22.2148 37.8477 21.7422 37.5039 21.7422 36.7305V36.0859C25.6094 35.3984 28.1445 32.2188 28.1445 27.8359ZM15.4688 27.8359C15.4688 24.4844 17.3164 22.3359 20.1094 22.3359C22.9023 22.3359 24.75 24.4844 24.75 27.8359C24.75 31.1875 22.9023 33.3359 20.1094 33.3359C17.3164 33.3359 15.4688 31.1875 15.4688 27.8359ZM41.7227 36H45.418L41.4219 29.3828C43.3984 28.6094 44.5586 27.0195 44.5586 24.7422C44.5586 21.5625 42.2812 19.6719 38.543 19.6719H31.4961V36H34.7617V29.8555H38.1133L41.7227 36ZM34.7617 22.4648H38.2852C40.2188 22.4648 41.207 23.2812 41.207 24.8281C41.207 26.375 40.2188 27.2344 38.2852 27.2344H34.7617V22.4648Z" fill="black"/>
<path d="M2 14V5C2 3.34315 3.34315 2 5 2H14" stroke="black" stroke-width="3"/>
<path d="M2.5 14H6V6H14V3H2.5V14Z" fill="black"/>
<path d="M55 14V5C55 3.34315 53.6569 2 52 2H43" stroke="black" stroke-width="3"/>
<path d="M54.5 14H51V6H43V3H54.5V14Z" fill="black"/>
<path d="M55 43V52C55 53.6569 53.6569 55 52 55H43" stroke="black" stroke-width="3"/>
<path d="M54.5 43H51V51H43V54H54.5V43Z" fill="black"/>
<path d="M2 43V52C2 53.6569 3.34315 55 5 55H14" stroke="black" stroke-width="3"/>
<path d="M2.5 43H6V51H14V54H2.5V43Z" fill="black"/>
</g>
<defs>
<clipPath id="clip0_21_72">
<rect width="57" height="57" fill="white"/>
</clipPath>
</defs>
</svg>
